<mxfile host="app.diagrams.net" modified="2022-03-23T13:07:37.176Z" agent="5.0 (Macintosh; Intel Mac OS X 10_15_7) AppleWebKit/605.1.15 (KHTML, like Gecko) Version/15.3 Safari/605.1.15" etag="rd3HQSdpqQXVg5uu7LT0" version="17.1.3" type="github">
  <diagram id="AD9NcxBlqvP_TzNcRdTW" name="Page-1">
    <mxGraphModel dx="1018" dy="690" grid="1" gridSize="10" guides="1" tooltips="1" connect="1" arrows="1" fold="1" page="1" pageScale="1" pageWidth="827" pageHeight="1169" math="0" shadow="0">
      <root>
        <mxCell id="0" />
        <mxCell id="1" parent="0" />
        <mxCell id="SQZDWl5lXgqloxnIGq3_-1" value="" style="rounded=0;whiteSpace=wrap;html=1;" vertex="1" parent="1">
          <mxGeometry x="20" y="60" width="790" height="300" as="geometry" />
        </mxCell>
        <mxCell id="SQZDWl5lXgqloxnIGq3_-2" value="业务单据" style="rounded=0;whiteSpace=wrap;html=1;" vertex="1" parent="1">
          <mxGeometry x="20" y="60" width="50" height="300" as="geometry" />
        </mxCell>
        <mxCell id="SQZDWl5lXgqloxnIGq3_-3" value="合同立项" style="rounded=0;whiteSpace=wrap;html=1;" vertex="1" parent="1">
          <mxGeometry x="80" y="80" width="80" height="40" as="geometry" />
        </mxCell>
        <mxCell id="SQZDWl5lXgqloxnIGq3_-4" value="合同" style="rounded=0;whiteSpace=wrap;html=1;" vertex="1" parent="1">
          <mxGeometry x="190" y="80" width="80" height="40" as="geometry" />
        </mxCell>
        <mxCell id="SQZDWl5lXgqloxnIGq3_-5" value="补充合同&lt;span style=&quot;color: rgba(0 , 0 , 0 , 0) ; font-family: monospace ; font-size: 0px&quot;&gt;%3CmxGraphModel%3E%3Croot%3E%3CmxCell%20id%3D%220%22%2F%3E%3CmxCell%20id%3D%221%22%20parent%3D%220%22%2F%3E%3CmxCell%20id%3D%222%22%20value%3D%22%E5%90%88%E5%90%8C%22%20style%3D%22rounded%3D0%3BwhiteSpace%3Dwrap%3Bhtml%3D1%3B%22%20vertex%3D%221%22%20parent%3D%221%22%3E%3CmxGeometry%20x%3D%22190%22%20y%3D%2280%22%20width%3D%2280%22%20height%3D%2240%22%20as%3D%22geometry%22%2F%3E%3C%2FmxCell%3E%3C%2Froot%3E%3C%2FmxGraphModel%3E&lt;/span&gt;" style="rounded=0;whiteSpace=wrap;html=1;" vertex="1" parent="1">
          <mxGeometry x="300" y="80" width="80" height="40" as="geometry" />
        </mxCell>
        <mxCell id="SQZDWl5lXgqloxnIGq3_-6" value="合同验收" style="rounded=0;whiteSpace=wrap;html=1;" vertex="1" parent="1">
          <mxGeometry x="410" y="80" width="80" height="40" as="geometry" />
        </mxCell>
        <mxCell id="SQZDWl5lXgqloxnIGq3_-7" value="合同结算" style="rounded=0;whiteSpace=wrap;html=1;" vertex="1" parent="1">
          <mxGeometry x="520" y="80" width="80" height="40" as="geometry" />
        </mxCell>
        <mxCell id="SQZDWl5lXgqloxnIGq3_-8" value="付款申请" style="rounded=0;whiteSpace=wrap;html=1;" vertex="1" parent="1">
          <mxGeometry x="630" y="80" width="80" height="40" as="geometry" />
        </mxCell>
        <mxCell id="SQZDWl5lXgqloxnIGq3_-9" value="合同" style="rounded=0;whiteSpace=wrap;html=1;" vertex="1" parent="1">
          <mxGeometry x="270" y="220" width="80" height="40" as="geometry" />
        </mxCell>
        <mxCell id="SQZDWl5lXgqloxnIGq3_-10" value="日常报销" style="rounded=0;whiteSpace=wrap;html=1;" vertex="1" parent="1">
          <mxGeometry x="410" y="150" width="80" height="40" as="geometry" />
        </mxCell>
        <mxCell id="SQZDWl5lXgqloxnIGq3_-11" value="借款申请" style="rounded=0;whiteSpace=wrap;html=1;" vertex="1" parent="1">
          <mxGeometry x="300" y="150" width="80" height="40" as="geometry" />
        </mxCell>
        <mxCell id="SQZDWl5lXgqloxnIGq3_-12" value="出差申请" style="rounded=0;whiteSpace=wrap;html=1;" vertex="1" parent="1">
          <mxGeometry x="190" y="150" width="80" height="40" as="geometry" />
        </mxCell>
        <mxCell id="SQZDWl5lXgqloxnIGq3_-13" value="费用申请" style="rounded=0;whiteSpace=wrap;html=1;" vertex="1" parent="1">
          <mxGeometry x="80" y="150" width="80" height="40" as="geometry" />
        </mxCell>
      </root>
    </mxGraphModel>
  </diagram>
</mxfile>
